<?xml version="1.0" encoding="UTF-8"?>
<svg width="30px" height="44px" viewBox="0 0 30 44" version="1.1" xmlns="http://www.w3.org/2000/svg" xmlns:xlink="http://www.w3.org/1999/xlink">
    <!-- Generator: Sketch 51.1 (57501) - http://www.bohemiancoding.com/sketch -->
    <title>icon-1</title>
    <desc>Created with Sketch.</desc>
    <defs></defs>
    <g id="Page-1" stroke="none" stroke-width="1" fill="none" fill-rule="evenodd" opacity="0.8">
        <g id="icon-1" transform="translate(-1.000000, 0.000000)" fill="#2EB0EC">
            <g id="icon">
                <path d="M28.257,23.81 C26.1161502,25.9141367 24.7213879,28.6601187 24.285,31.63 L24.158,31.63 C24.0159865,32.3443662 23.4945119,32.9237824 22.799,33.14 L22.799,39.87 C22.803255,40.5954503 22.519009,41.2928486 22.0088505,41.8086339 C21.4986919,42.3244192 20.8044533,42.6162976 20.079,42.62 L18.719,42.62 C18.7211282,42.9822626 18.578847,43.3304473 18.3236242,43.5875467 C18.0684015,43.844646 17.7212685,43.9894743 17.359,43.99 L14.64,43.99 C14.277814,43.9892076 13.9308366,43.8442942 13.6756716,43.587253 C13.4205066,43.3302118 13.278139,42.9821821 13.28,42.62 L11.92,42.62 C11.1947205,42.6160332 10.5007386,42.3240383 9.99079608,41.8082818 C9.48085356,41.2925253 9.19674459,40.5952779 9.201,39.87 L9.201,33.14 C8.50534384,32.9237097 7.98359332,32.3444131 7.841,31.63 L7.715,31.63 C7.27784327,28.6601512 5.88279801,25.9143032 3.742,23.81 C-0.652360155,17.5800979 0.325351065,9.04489845 6.01467163,3.97008685 C11.7039922,-1.10472474 20.2950078,-1.10472474 25.9843284,3.97008685 C31.6736489,9.04489845 32.6513602,17.5800979 28.257,23.81 Z M13.28,39.87 L18.719,39.87 C19.081186,39.8692076 19.4281634,39.7242942 19.6833284,39.467253 C19.9384934,39.2102118 20.080861,38.8621821 20.079,38.5 L20.079018,38.02 L13.267,39.87 L13.28,39.87 Z M11.92,38.2 L20.079,36 L20.079,34.59 L11.92,36.8 L11.92,38.2 Z M11.9199759,34.77 L18.448,33 L13.28,33 C12.5238262,33.006601 11.9155618,33.6238104 11.92,34.38 L11.9199759,34.77 Z M16,2.93 C11.0121755,2.98137282 6.55246557,6.04883076 4.72039633,10.688287 C2.88832708,15.3277433 4.04900093,20.6146278 7.656,24.06 C7.43,23.84 7.204,23.62 6.994,23.39 L6.866,23.39 C8.18914612,25.0310621 9.18300112,26.9121542 9.793,28.93 C10.068,29.05 10.353,29.16 10.636,29.27 C10.6889517,29.4448699 10.7751997,29.6078584 10.89,29.75 C10.6954925,29.853412 10.5610113,30.0423525 10.527,30.26 C10.527,31.05 12.977,31.7 16,31.7 C19.023,31.7 21.472,31.05 21.472,30.26 C21.4379887,30.0423525 21.3035075,29.853412 21.109,29.75 C21.2241141,29.607912 21.3107,29.4449268 21.364,29.27 C21.647,29.16 21.932,29.05 22.206,28.93 C22.8163948,26.9123169 23.8102114,25.0312974 25.133,23.39 L25.005,23.39 C24.796,23.62 24.57,23.84 24.343,24.06 C27.9498749,20.6147548 29.1106129,15.3281099 27.2787988,10.6887438 C25.4469847,6.04937765 20.9876428,2.98177338 16,2.93 Z M22.822,15.14 C22.8342213,11.358548 19.7873635,8.27861108 16.006,8.25 L16.006,6.75 C20.6090717,6.78848423 24.3171602,10.536781 24.3060251,15.14 L22.827,15.14 L22.822,15.14 Z" id="icon-2"></path>
            </g>
        </g>
    </g>
</svg>